<svg xmlns="http://www.w3.org/2000/svg" viewBox="0 0 64 64">
  <defs>
    <linearGradient id="ocean" x1="0" y1="0" x2="1" y2="1">
      <stop offset="0%" stop-color="#1e88e5"/>
      <stop offset="100%" stop-color="#0d47a1"/>
    </linearGradient>
    <linearGradient id="land" x1="0" y1="0" x2="1" y2="1">
      <stop offset="0%" stop-color="#66bb6a"/>
      <stop offset="100%" stop-color="#2e7d32"/>
    </linearGradient>
  </defs>

  <circle cx="32" cy="32" r="30" fill="url(#ocean)"/>

  <path fill="url(#land)" d="M19 21c2-4 9-7 13-5 2 1 3 4 1 6-2 3-6 4-6 7 0 3 4 3 6 5 3 2 3 6 1 9-3 4-10 6-14 3-5-4-6-14-1-25z"/>
  <path fill="url(#land)" d="M40 18c4-2 9 1 10 5 1 5-1 7-5 8-3 0-5 1-6 4-1 3 1 6 3 8 2 2 1 5-2 6-5 2-10-2-11-7-1-6 3-9 7-13 3-3 2-7 4-11z"/>

  <ellipse cx="32" cy="32" rx="20" ry="30" fill="none" stroke="#bbdefb" stroke-width="2" opacity=".75"/>
  <ellipse cx="32" cy="32" rx="8" ry="30" fill="none" stroke="#bbdefb" stroke-width="2" opacity=".75"/>
  <path d="M4 32h56M8 21h48M8 43h48" stroke="#bbdefb" stroke-width="2" opacity=".75"/>
</svg>
