<svg xmlns="http://www.w3.org/2000/svg" width="920" height="620" viewBox="0 0 920 620">
  <rect width="920" height="620" fill="#eef2f7"/>
  <rect x="14" y="14" width="892" height="592" fill="#ffffff" stroke="#cbd5e1" stroke-width="2"/>

  <rect x="14" y="14" width="892" height="52" fill="#f1f5f9"/>
  <text x="36" y="49" font-family="Segoe UI, Arial, sans-serif" font-size="30" fill="#1e293b">Import Profile or Certificate</text>

  <rect x="20" y="86" width="170" height="500" fill="#f8fafc" stroke="#e2e8f0" stroke-width="1"/>
  <text x="36" y="132" font-family="Segoe UI, Arial, sans-serif" font-size="22" fill="#334155">Downloads</text>

  <rect x="210" y="86" width="676" height="500" fill="#ffffff" stroke="#e2e8f0" stroke-width="1"/>
  <text x="242" y="132" font-family="Segoe UI, Arial, sans-serif" font-size="22" fill="#334155">Name</text>
  <text x="500" y="132" font-family="Segoe UI, Arial, sans-serif" font-size="22" fill="#334155">Date Modified</text>
  <text x="690" y="132" font-family="Segoe UI, Arial, sans-serif" font-size="22" fill="#334155">Type</text>

  <rect x="220" y="166" width="656" height="70" fill="#f8fafc" stroke="#dbe4ee" stroke-width="1"/>
  <text x="242" y="210" font-family="Segoe UI, Arial, sans-serif" font-size="28" fill="#0f172a">ovpn-trowar.ovpn</text>
  <text x="690" y="210" font-family="Segoe UI, Arial, sans-serif" font-size="24" fill="#334155">OVPN Profile</text>

  <rect x="650" y="530" width="100" height="40" rx="6" fill="#2563eb"/>
  <text x="679" y="557" font-family="Segoe UI, Arial, sans-serif" font-size="22" fill="#ffffff">Open</text>

  <line x1="285" y1="330" x2="245" y2="228" stroke="#ef4444" stroke-width="8"/>
  <polygon points="245,228 272,246 232,254" fill="#ef4444"/>

  <line x1="560" y1="430" x2="700" y2="552" stroke="#ef4444" stroke-width="8"/>
  <polygon points="700,552 672,546 685,574" fill="#ef4444"/>
</svg>
